<svg height="1950" width="720" xmlns="http://www.w3.org/2000/svg">
<rect height="1950" fill="#555" width="720"></rect>
<text fill="#7f7" font-family="Courier New" font-size="12" xml:space="preserve">
<tspan x="10" y="26">16 megabytes installed</tspan>
<tspan x="10" y="42"></tspan>
<tspan x="10" y="58">node_modules</tspan>
<tspan x="10" y="74">├── async@1.5.2 </tspan>
<tspan x="10" y="90">├─┬ bignum@0.11.0 </tspan>
<tspan x="10" y="106">│ └── nan@2.6.2 </tspan>
<tspan x="10" y="122">├── bluebird@2.11.0 </tspan>
<tspan x="10" y="138">├─┬ debug@2.6.4 </tspan>
<tspan x="10" y="154">│ └── ms@0.7.3 </tspan>
<tspan x="10" y="170">├─┬ enum@2.4.0 </tspan>
<tspan x="10" y="186">│ └── is-buffer@1.1.5 </tspan>
<tspan x="10" y="202">├─┬ file-type@2.12.0 </tspan>
<tspan x="10" y="218">│ ├─┬ meow@3.7.0 </tspan>
<tspan x="10" y="234">│ │ ├─┬ camelcase-keys@2.1.0 </tspan>
<tspan x="10" y="250">│ │ │ └── camelcase@2.1.1 </tspan>
<tspan x="10" y="266">│ │ ├── decamelize@1.2.0 </tspan>
<tspan x="10" y="282">│ │ ├─┬ loud-rejection@1.6.0 </tspan>
<tspan x="10" y="298">│ │ │ ├─┬ currently-unhandled@0.4.1 </tspan>
<tspan x="10" y="314">│ │ │ │ └── array-find-index@1.0.2 </tspan>
<tspan x="10" y="330">│ │ │ └── signal-exit@3.0.2 </tspan>
<tspan x="10" y="346">│ │ ├── map-obj@1.0.1 </tspan>
<tspan x="10" y="362">│ │ ├── minimist@1.2.0 </tspan>
<tspan x="10" y="378">│ │ ├─┬ normalize-package-data@2.3.8 </tspan>
<tspan x="10" y="394">│ │ │ ├── hosted-git-info@2.4.2 </tspan>
<tspan x="10" y="410">│ │ │ ├─┬ is-builtin-module@1.0.0 </tspan>
<tspan x="10" y="426">│ │ │ │ └── builtin-modules@1.1.1 </tspan>
<tspan x="10" y="442">│ │ │ ├── semver@5.3.0 </tspan>
<tspan x="10" y="458">│ │ │ └─┬ validate-npm-package-license@3.0.1 </tspan>
<tspan x="10" y="474">│ │ │   ├─┬ spdx-correct@1.0.2 </tspan>
<tspan x="10" y="490">│ │ │   │ └── spdx-license-ids@1.2.2 </tspan>
<tspan x="10" y="506">│ │ │   └── spdx-expression-parse@1.0.4 </tspan>
<tspan x="10" y="522">│ │ ├── object-assign@4.1.1 </tspan>
<tspan x="10" y="538">│ │ ├─┬ read-pkg-up@1.0.1 </tspan>
<tspan x="10" y="554">│ │ │ ├─┬ find-up@1.1.2 </tspan>
<tspan x="10" y="570">│ │ │ │ ├── path-exists@2.1.0 </tspan>
<tspan x="10" y="586">│ │ │ │ └─┬ pinkie-promise@2.0.1 </tspan>
<tspan x="10" y="602">│ │ │ │   └── pinkie@2.0.4 </tspan>
<tspan x="10" y="618">│ │ │ └─┬ read-pkg@1.1.0 </tspan>
<tspan x="10" y="634">│ │ │   ├─┬ load-json-file@1.1.0 </tspan>
<tspan x="10" y="650">│ │ │   │ ├── graceful-fs@4.1.11 </tspan>
<tspan x="10" y="666">│ │ │   │ ├─┬ parse-json@2.2.0 </tspan>
<tspan x="10" y="682">│ │ │   │ │ └─┬ error-ex@1.3.1 </tspan>
<tspan x="10" y="698">│ │ │   │ │   └── is-arrayish@0.2.1 </tspan>
<tspan x="10" y="714">│ │ │   │ ├── pify@2.3.0 </tspan>
<tspan x="10" y="730">│ │ │   │ └─┬ strip-bom@2.0.0 </tspan>
<tspan x="10" y="746">│ │ │   │   └── is-utf8@0.2.1 </tspan>
<tspan x="10" y="762">│ │ │   └── path-type@1.1.0 </tspan>
<tspan x="10" y="778">│ │ ├─┬ redent@1.0.0 </tspan>
<tspan x="10" y="794">│ │ │ ├─┬ indent-string@2.1.0 </tspan>
<tspan x="10" y="810">│ │ │ │ └─┬ repeating@2.0.1 </tspan>
<tspan x="10" y="826">│ │ │ │   └─┬ is-finite@1.0.2 </tspan>
<tspan x="10" y="842">│ │ │ │     └── number-is-nan@1.0.1 </tspan>
<tspan x="10" y="858">│ │ │ └─┬ strip-indent@1.0.1 </tspan>
<tspan x="10" y="874">│ │ │   └── get-stdin@4.0.1 </tspan>
<tspan x="10" y="890">│ │ └── trim-newlines@1.0.0 </tspan>
<tspan x="10" y="906">│ └── read-chunk@1.0.1 </tspan>
<tspan x="10" y="922">├── iconv-lite@0.4.15 </tspan>
<tspan x="10" y="938">├── inherits@2.0.3 </tspan>
<tspan x="10" y="954">├─┬ jszip@2.6.1 </tspan>
<tspan x="10" y="970">│ └── pako@1.0.5 </tspan>
<tspan x="10" y="986">├─┬ node-rsa@0.2.30 </tspan>
<tspan x="10" y="1002">│ ├── asn1@0.2.3 </tspan>
<tspan x="10" y="1018">│ └── lodash@3.3.0 </tspan>
<tspan x="10" y="1034">├── node-uuid@1.4.8 </tspan>
<tspan x="10" y="1050">├── phone@1.0.9 </tspan>
<tspan x="10" y="1066">├─┬ request@2.81.0 </tspan>
<tspan x="10" y="1082">│ ├── aws-sign2@0.6.0 </tspan>
<tspan x="10" y="1098">│ ├── aws4@1.6.0 </tspan>
<tspan x="10" y="1114">│ ├── caseless@0.12.0 </tspan>
<tspan x="10" y="1130">│ ├─┬ combined-stream@1.0.5 </tspan>
<tspan x="10" y="1146">│ │ └── delayed-stream@1.0.0 </tspan>
<tspan x="10" y="1162">│ ├── extend@3.0.0 </tspan>
<tspan x="10" y="1178">│ ├── forever-agent@0.6.1 </tspan>
<tspan x="10" y="1194">│ ├─┬ form-data@2.1.4 </tspan>
<tspan x="10" y="1210">│ │ └── asynckit@0.4.0 </tspan>
<tspan x="10" y="1226">│ ├─┬ har-validator@4.2.1 </tspan>
<tspan x="10" y="1242">│ │ ├─┬ ajv@4.11.7 </tspan>
<tspan x="10" y="1258">│ │ │ ├── co@4.6.0 </tspan>
<tspan x="10" y="1274">│ │ │ └─┬ json-stable-stringify@1.0.1 </tspan>
<tspan x="10" y="1290">│ │ │   └── jsonify@0.0.0 </tspan>
<tspan x="10" y="1306">│ │ └── har-schema@1.0.5 </tspan>
<tspan x="10" y="1322">│ ├─┬ hawk@3.1.3 </tspan>
<tspan x="10" y="1338">│ │ ├── boom@2.10.1 </tspan>
<tspan x="10" y="1354">│ │ ├── cryptiles@2.0.5 </tspan>
<tspan x="10" y="1370">│ │ ├── hoek@2.16.3 </tspan>
<tspan x="10" y="1386">│ │ └── sntp@1.0.9 </tspan>
<tspan x="10" y="1402">│ ├─┬ http-signature@1.1.1 </tspan>
<tspan x="10" y="1418">│ │ ├── assert-plus@0.2.0 </tspan>
<tspan x="10" y="1434">│ │ ├─┬ jsprim@1.4.0 </tspan>
<tspan x="10" y="1450">│ │ │ ├── assert-plus@1.0.0 </tspan>
<tspan x="10" y="1466">│ │ │ ├── extsprintf@1.0.2 </tspan>
<tspan x="10" y="1482">│ │ │ ├── json-schema@0.2.3 </tspan>
<tspan x="10" y="1498">│ │ │ └── verror@1.3.6 </tspan>
<tspan x="10" y="1514">│ │ └─┬ sshpk@1.13.0 </tspan>
<tspan x="10" y="1530">│ │   ├── assert-plus@1.0.0 </tspan>
<tspan x="10" y="1546">│ │   ├── bcrypt-pbkdf@1.0.1 </tspan>
<tspan x="10" y="1562">│ │   ├─┬ dashdash@1.14.1 </tspan>
<tspan x="10" y="1578">│ │   │ └── assert-plus@1.0.0 </tspan>
<tspan x="10" y="1594">│ │   ├── ecc-jsbn@0.1.1 </tspan>
<tspan x="10" y="1610">│ │   ├─┬ getpass@0.1.6 </tspan>
<tspan x="10" y="1626">│ │   │ └── assert-plus@1.0.0 </tspan>
<tspan x="10" y="1642">│ │   ├── jodid25519@1.0.2 </tspan>
<tspan x="10" y="1658">│ │   ├── jsbn@0.1.1 </tspan>
<tspan x="10" y="1674">│ │   └── tweetnacl@0.14.5 </tspan>
<tspan x="10" y="1690">│ ├── is-typedarray@1.0.0 </tspan>
<tspan x="10" y="1706">│ ├── isstream@0.1.2 </tspan>
<tspan x="10" y="1722">│ ├── json-stringify-safe@5.0.1 </tspan>
<tspan x="10" y="1738">│ ├─┬ mime-types@2.1.15 </tspan>
<tspan x="10" y="1754">│ │ └── mime-db@1.27.0 </tspan>
<tspan x="10" y="1770">│ ├── oauth-sign@0.8.2 </tspan>
<tspan x="10" y="1786">│ ├── performance-now@0.2.0 </tspan>
<tspan x="10" y="1802">│ ├── qs@6.4.0 </tspan>
<tspan x="10" y="1818">│ ├── safe-buffer@5.0.1 </tspan>
<tspan x="10" y="1834">│ ├── stringstream@0.0.5 </tspan>
<tspan x="10" y="1850">│ ├─┬ tough-cookie@2.3.2 </tspan>
<tspan x="10" y="1866">│ │ └── punycode@1.4.1 </tspan>
<tspan x="10" y="1882">│ ├── tunnel-agent@0.6.0 </tspan>
<tspan x="10" y="1898">│ └── uuid@3.0.1 </tspan>
<tspan x="10" y="1914">├── url-join@0.0.1 </tspan>
<tspan x="10" y="1930">└── xtend@4.0.1</tspan>
</text>
</svg>
